<?xml version="1.0" encoding="UTF-8"?>
<svg viewBox="0 0 271.75473 340.12646" xmlns="http://www.w3.org/2000/svg">
<title>brain</title>
<title>Layer 1</title>
<path d="m-348.67944,85.92945c13.55124,34.47615-4.80432,69.06087 12.33337,103.07192 7.81473,38.19051 28.87268,72.07352 34.09656,111.15698 5.1152,33.28662 23.06027,62.09396 33.71155,94.11496 24.9975,76.86554 93.66698,138.64355 172.50093,157.47467 38.40276,12.34393 80.38292-11.4364 64.7956-54.35574 4.05392-18.02078 22.62451-31.69363 15.32781-3.14557-18.83664,46.82657 36.56348,58.67459 71.37094,51.01254 43.0703,11.86585 63.62055-28.62262 96.52183-40.61005 33.49042-20.66562 58.01132-47.60608 73.38156-85.14831 23.84366-27.78156 31.66095-65.56696 36.32364-100.86475-.10773-43.88031 40.1294-76.95305 44.62067-121.38925 6.80878-34.82944 3.73566-72.1189 12.22699-105.91117 17.21445-32.49256 8.84717-73.23774-10.9671-102.6922-8.73282-36.25248-27.24143-72.17286-52.65016-100.26365-29.34351-32.89654-51.57468-71.41862-81.63141-103.82592-40.80341-23.01285-77.25922-65.95082-128.7262-61.1086-31.31332,8.01993-45.72395,53.46011-45.23434,82.72414 15.07159,15.72656-9.23881,74.29729-10.40243,29.31366-3.80911-39.85353-5.77568-82.03668-27.9873-116.85091-35.83888-15.09403-83.91289,10.27417-105.92543,38.84624-38.29475,6.46851-59.91953,40.36563-83.03035,68.03389-25.21274,26.64537-51.76291,52.48046-64.16531,88.03296-16.02011,36.21503-39.67465,69.42114-47.70117,108.97763-5.32935,20.6886-9.13193,41.98412-8.79019,63.40652h-6.1e-005v1.5e-005zm6.7663,1.08092c-3.40491-21.95233 19.34677-48.96589 11.79822-63.72447 8.76544-28.98937 25.91745-66.78023 44.86099-86.79209 35.27727,2.65854-22.11911-13.82953 3.77405-28.88014 11.19717-8.79242 31.59856-7.00315 10.76779-17.12238 2.13742-9.50896 39.41507-25.98543 14.63712-25.25797 19.98248-23.51668 52.48537-28.13078 59.38829-52.30475 20.44692-22.35554 43.80193-6.04507 53.32634,15.30293-6.98827,15.63226-22.08112,25.86118-4.94504,37.30148-1.11137,18.78483-40.21051,54.48702-19.15157,56.31226 17.25847-28.90302 35.56798-58.4751 40.34484-86.42437 11.26087-9.05107 41.68148-29.71393 9.34325-14.37791-32.3513,9.87707-47.4604-32.83354-11.65089-38.45062 25.9326-11.57239 19.58572,7.53519 10.24736,10.4109 34.29176,16.88138 10.09399-45.99793 42.64928-18.22241 33.19338,2.6806-30.99674-27.092 6.83973-26.45657 28.37409-3.14374 26.76004,43.00413 19.54982,47.53201-15.18258-8.27208-62.60708-5.84232-24.93054,6.65862 16.47673,7.8073 53.69141,25.95776 20.16508,40.24867-10.31265,12.94743 33.76134,19.81285 6.81035,39.36087-35.8307,15.55784-84.82193,20.31183-99.24728,65.30536-6.39581,18.78896 5.90137,73.03484-29.77708,45.67125-21.25397-23.74908-77.10292-.33092-72.57066-42.42752-13.32695,17.44713-38.7318,30.6503-50.24037,50.91577-18.62961,18.11125 28.84021,23.01122 16.18951-3.63755 20.62418-33.06672 76.18082-10.42241 103.26706,7.75009 20.17343,4.80339 15.54343,69.02781 29.57214,26.05254 3.79279-31.76442 55.00846-21.22128 21.69104-50.54643-29.72867-31.74321 11.94628-70.75972 45.07603-73.90899 28.85062-15.51264 76.66683-4.57165 48.26662,26.47797-19.29848-18.08873-32.89964-3.29253-38.24935,12.50938-26.06807-31.24828 5.67121,63.99981 24.36424,17.12382 27.93344-12.34004 17.85905,45.80156-7.51868,44.44141-20.50454,32.28286-68.52633,20.17779-90.4328,52.17462-30.34178,11.041-46.19363-16.7775-54.00946-37.07085-15.47504,30.2223-58.13029,50.92679-65.21587,89.87733-.72836,13.03269-13.24912,68.55039 6.52887,42.91936 1.0293-36.16479 9.74454-82.44199 49.8123-94.66599 29.36618,8.56152 67.76222,35.04984 90.94001-4.50358 30.74376-16.12247 71.00538-19.89696 99.86255-15.98682 4.3346,34.97189-8.82264,70.95029-2.33214,106.3437-24.57641,11.19008-33.69933,35.53439-37.63083,60.34055 13.44611.81515 48.22419-26.29224 45.6097,11.56284-5.47373,15.09888-1.96493,35.36906-2.5345,43.55298-7.62473,22.86795 5.14082,78.94153-31.60872,87.44794-23.66901-23.46918-39.98092,48.19272-7.58885,17.81339 47.77866-21.14365 23.14514,57.25983 14.20011,80.13101-11.63296,15.49432 11.06827,76.79105-26.50053,71.19516-15.56937-27.88361 19.40128-78.15228-32.99105-78.0437 4.60389,10.81247 10.79736,36.86487-6.78099,45.75046 28.98773,9.53388 21.16061,37.58438-6.41216,33.64639-20.00841,9.78021-23.00315-11.93228-17.24378-23.69116-9.48199-23.27634-39.32649-48.20081-8.0099-65.81003 21.24874-17.89923-5.98785-36.3414 19.7277-51.82117 28.02812-35.28317-10.86752-62.65311-27.54014-90.7312-13.10498-11.20142-14.81372-86.7608-22.87749-42.39592 1.61571,13.96291-8.61159,32.32079 5.08862,42.19658 14.28008,28.48486 43.91895,59.79279 26.56747,92.64999-17.83134,41.15781-31.927-43.74423-40.73119-11.53201 18.13113,28.55457-55.63939,37.09335-8.29808,42.34082 18.23982-7.41904 53.4993-8.97641 24.3696,16.69354-50.03113-2.49893 17.35968,54.10294.17625,67.07404-10.89853-23.96832-64.20252-32.82962-46.57959-61.83637-15.83717-7.06732-35.29739-6.93927-39.52264-27.13812-13.11255-17.93817-18.97192-39.15802-15.93637-54.74313-40.73199-2.76306-.71616-31.58017-1.93692-44.09586-27.94974-.35007-38.51144-26.08646-27.29807-43.78799-14.14166-28.5043-48.23026-58.88525-29.74121-94.27219-36.12857-24.78348 10.91403-61.90115 4.99344-93.99505-1.51624-11.90152-16.52673,10.30201-22.77106,11.5693zm43.08563,94.06314c22.0582,26.85619 11.19324-24.17252 0,0zm10.26614,137.31143c1.70624-11.97443 2.02322,11.9437 0,0zm27.06491-102.17087c21.7672,15.35658 8.93308,30.9449 7.2329,51.12271 2.10295,26.95505 11.87299,19.60898 14.07666-2.0079 5.34421-40.05417 53.51698-48.33855 79.38854-72.69257 16.94676-34.29141 55.92238-51.88115 69.16776-88.89673 15.54651-34.99799 71.90625,41.82869 45.36816-9.80125 5.74794-41.44464-50.26419-7.94245-64.31416,8.9326-18.71421,19.94769-43.23185,39.06075-67.4923,43.0798 7.07706,36.80652-37.38115,77.47165-75.1153,69.97488l-4.32611-.17178-3.98615.46024zm1.47757-192.53082c16.57175,11.486 11.27454-17.55035 0,0zm8.78839,332.08026c2.48143,40.49017 36.70712-46.50238 1.13083-7.0527l-1.13097,7.0527h.00014zm3.11092-39.69598c13.3376,24.20654 9.6917-19.54578 0,0zm2.09978-369.84378c22.25452-3.77513 36.4799-48.65855 20.05504-59.68899-39.37068-1.82758 8.14404,34.21207-18.15836,53.49322l-1.89668,6.19578zm3.18877-79.93108c24.67818-9.03422 19.73406-19.7916 0,0zm6.4552,541.59999c23.35617,8.05911 13.6841-22.30728 0,0zm12.44342-245.81718c10.71512,16.28032 56.00706-24.5096 22.55515-35.442-22.77414-31.98209-11.92899.37596-6.89961,15.18643-5.63469,6.34615-14.00067,11.3667-15.65553,20.25557zm1.01119,203.41802c23.43205,21.03509 24.30011-23.69931 0,0zm3.73322-58.61624c17.55127,7.13864 60.77237,2.67557 21.04343-11.76865-15.25484-10.99234-16.53139-1.11981-21.04343,11.76865zm12.75465-461.28174c19.69083-4.03557 6.97029-11.53088 0,0zm27.06487-60.85558c5.33995-8.97234 6.94421,5.44156 0,0zm22.94228-9.42189c20.53392-19.8681 25.11821,7.71411 0,0zm30.48754-21.00609c17.38416-14.90001 11.13683,11.59801 0,0zm1.7887,437.2661c-3.41254,34.83267 26.50704,58.7167 37.17548,83.71411 14.38941,2.27692 42.87446,65.56204 39.17961,33.20081-11.64927-37.59094-39.10291-64.17813-59.45404-95.12788 31.8568-10.4171 2.98005-77.00011-15.67542-35.49388l-.95309,6.27812-.27253,7.42873zm21.93253-319.18443c19.19566,21.76628 17.35152-20.62489 0,0zm5.44273,544.99886c17.55551,22.44336 71.50153-16.7406 22.42218-5.05463-7.2135,2.20239-16.1732.26904-22.42218,5.05463zm27.37694-413.78848c10.88058,3.55928 4.42599-4.22486 0,0zm32.81967-49.42595c8.40809-7.48189 8.00987,11.01538 0,0zm32.04284,158.70486c11.51871-37.64115 2.09549-75.87655 4.28238-114.59748-4.09307-48.48311 50.86967-46.68573 73.38321-15.94015 38.23959,7.6219 2.85113-31.58132-10.87244-42.79652-18.44657-7.10721-49.57549,10.88526-62.013-12.9591-10.768-33.1838 6.87564-82.8228 46.99527-53.71439 14.79906,4.93778 62.47813,35.37887 34.93964,3.45702-35.71648-37.27694 28.65153-11.93322 48.6224-10.38543 17.41678,4.79005 52.44458-2.66878 52.13449,21.26685-19.85991-13.15382 19.74242,31.94494-5.12453,44.16685-28.49808,25.70704 35.31831,9.23325 37.66676,39.04423 5.04454,19.13771 19.07001,47.37382 42.4142,49.24689-2.01549-12.70678 1.86704-48.53529-19.46654-40.54892-26.57561-1.08386-54.29692-78.02235-8.11436-74.71311 19.79138-5.39864 30.71274,21.65282 42.41263,32.77824 21.12958,27.57411 15.74234,60.52661 44.09524,85.64588 13.61908,30.33087-6.78101,62.45232-12.40494,86.82904-18.112-28.8009-23.88278,28.95483-7.5007,39.56313 3.44678,23.37035-17.66974,37.88747-10.63739,64.2672-11.32455,26.51752-17.45108,79.83934-49.22136,82.5992-2.87399-13.78467-19.67387-75.35033-26.91344-39.77383 12.58601,18.04837 8.87322,51.78388 21.26015,63.88473 24.95668-7.5567 20.11939,9.94547 15.03404,29.07315-6.36646,21.7789-13.39877,64.25909-33.28641,64.87167-4.63489-26.66983 26.76656-69.6297-.58261-84.52603-7.46483,30.94333-23.21204,53.8728-15.4388,86.14661-4.06535,13.9111 33.47574-.28686 7.82381,22.39475-17.61585,6.81775-17.99287,45.33731-45.85448,35.06445 5.2942-11.4834 45.32735-54.98947 13.21433-34.57175-31.80615,22.9133-27.79796,65.8602-69.19057,76.2319-25.1786,9.81909-63.38226-29.01477-81.82886,5.87293-22.60003,3.91693-19.04388-41.78815-23.64942-58.18997 15.66728-36.56348-3.50554-79.08737 12.02791-113.30746 31.33616-5.14859-27.63642-37.64771 3.06487-58.94367 3.51047-15.28366-11.31959-31.55747-9.76757-48.16678-5.43618-26.65036 2.27668-54.90027 32.93883-44.50426-43.6823-3.10503-38.77975-48.47632-40.42645-80.65286l-.01631-4.11301zm9.3318,354.93868c16.1422,18.92343 10.21638-18.15689 0,0zm7.9332-482.90672c13.63542,29.75703 41.79245,75.09668 77.44366,66.25808 31.84208-34.87108 56.19489,16.85562 70.14858,31.56235 35.24972-32.59304 52.10999,36.85513 49.0043,63.76646 4.02124,14.37772 57.31609,33.70796 37.11018,13.33406-29.3598-26.04425-24.85056-76.16059-59.96323-102.17085-5.70708-22.92143-57.94279-1.46013-34.79929-36.53038 13.02509-20.34083 33.31416-4.5373 50.32133,1.29046 28.13092-.28927 41.22124,62.20146 53.78607,52.6984-3.97885-30.90002-30.06811-63.31415-49.3976-75.30366-11.88431-25.66118-78.25478,26.02387-59.60907-26.00589-.07671-16.71657-23.32304-30.83697-9.91283-46.68362 11.04703-13.19572 19.44046-63.26894-5.51784-32.13003-32.83598,36.86276-73.46481,6.98743-106.23062-11.1987-20.37397,23.85474 43.21067,29.03783 56.68288,47.41843 38.24612,9.95842 56.27002,56.68597 31.01793,86.60181-27.10274-2.11372-45.30126,41.09102-64.48061,1.81926-7.87931-8.86747-20.83093-49.78689-35.60387-34.7262zm8.63331-145.80652c-.52714-45.40532 55.71021-33.93181 82.14711-19.14564 43.88142,19.99255 5.24365-25.75908-17.04633-21.74039-27.07662,4.49388-39.10941-51.88521-12.13886-22.05473 8.32323,22.93912 37.34358-1.71732 48.97328,21.97583 25.72205,7.57312 49.10875,60.56857 4.22366,44.5887-32.75605-8.85319-70.17471-30.98462-101.08984-6.67027 8.46522,3.41179 41.62762,10.67862 11.62153,15.19971-6.80711-.52409-17.5147-3.22317-16.69055-12.1532zm2.09878,540.36424c32.07872,25.69745 49.33723-18.77921 76.73207-26.57745-40.7463-6.64758 3.73731-49.78574-16.50286-76.42642-24.24182-37.05286 15.75703-74.5238-2.91964-110.88307-17.56039,33.76309-34.20524,68.38022-11.09766,103.94865 15.18582,33.5054-23.88442,54.30393-8.63821,87.9422-7.69817,12.75232-24.92238,15.79416-37.5737,21.99609zm1.24522,59.85113c17.32539,15.68555 64.03505,4.13571 24.36424-12.00037-7.65086.09888-18.28177,6.83557-24.36424,12.00037zm2.4888,32.97711c12.32819,39.77057 34.30969-17.16675 0,0zm4.89926-316.24904c32.67771-21.48723 84.70614-12.20781 99.84136,30.39389 22.618,35.32697-11.6672,68.41104.14522,105.77181 .3085,39.69278-10.88058,76.31622-33.37451,109.17987-26.6262,20.70291 21.20464,54.47409-16.37068,74.37799-25.64866,19.3367 20.05574,47.11826 11.31468,8.56314 8.36732-20.92654 38.56764-32.3111 15.4584-56.5549-.54182-22.58109 14.11522-57.3992 35.18609-67.7385 20.32503,1.93823 60.59644,1.92526 19.55634-9.84662-30.80577-4.7207-7.55783-35.64294-18.67505-54.44162-10.58519-34.63824 8.99232-69.30397 9.79694-104.10262 32.57814,4.48576 66.07185,25.78822 85.87622,52.69791 6.78917,20.59914 16.36746,47.34514 15.67056,9.88065-3.84338-23.60043 19.85175-63.67245-18.53963-56.78661-37.97844-16.02426-69.91847-45.54794-112.13357-50.56526-60.15418-9.81258-3.04208-59.14941-10.16419-90.08623-17.03651,15.23992-41.00089,47.72761-58.62332,50.29623-16.59751-11.80914-20.36745,38.72852-24.96484,48.96087zm112.07,239.94905c12.08009,16.49747 42.08945-8.14987 6.73039-3.27844-1.94373.51373-6.4709.13614-6.73039,3.27844zm9.10007-267.90566c20.7428,3.17149 25.72862-27.0863 4.11916-4.37392l-4.11916,4.37392zm15.86635-311.07402c15.2789,5.18617 44.29271,35.20361 9.34978,13.13606-4.15996-3.28943-8.91892-7.42191-9.34978-13.13606zm10.187,466.76611c7.45505,37.4661 24.27123-2.78415 1.60104-7.2359l-1.52269,5.76764-.07835,1.46826zm5.13429-426.53024c21.98479-10.93321 65.1253,48.94045 14.87578,37.4784-14.84799-6.62926-4.78834-26.48396-14.87578-37.4784zm79.17357,176.15684c14.60162,21.94017 42.10095-11.738 6.99158-6.12643-2.91641.60464-7.27063,2.3722-6.99158,6.12643zm0-88.34881c7.08298,14.69296 17.14426-10.1017 0,0zm2.48721,217.78348c32.95349,17.21538 18.30948-16.45213 0,0zm37.33218-141.01871c5.98456,9.87517 3.94131-9.194 0,0z"/>
</svg>
