<svg width="128" xmlns="http://www.w3.org/2000/svg" height="128" xmlns:xlink="http://www.w3.org/1999/xlink">
<defs>
<linearGradient id="linearGradient21034" xlink:href="#linearGradient9047" y1="-Infinity" y2="Infinity" x1="0.500001" x2="0.500001"/>
<linearGradient id="linearGradient21016" xlink:href="#linearGradient10539" y1="1.492731" y2="0.316214" x1="0.671475" x2="1.67677"/>
<linearGradient id="linearGradient21036" xlink:href="#linearGradient7555" y1="-2.517849" y2="1.66169" x1="-1.732605" x2="0.667093"/>
<linearGradient id="linearGradient21040" xlink:href="#linearGradient7555" y1="-Infinity" y2="Infinity" x1="0.698553" x2="0.626469"/>
<linearGradient id="linearGradient21042" xlink:href="#linearGradient10574" y1="1.686414" y2="0.2368" x1="1.173463" x2="2.0578"/>
<linearGradient id="linearGradient21038" xlink:href="#linearGradient7555" y1="0.830065" y2="0.887676" x1="1.327198" x2="0.5"/>
<linearGradient id="linearGradient21032" xlink:href="#linearGradient9047" y1="-Infinity" y2="Infinity" x1="0.500001" x2="0.500001"/>
<linearGradient id="linearGradient21018" xlink:href="#linearGradient10539" y1="1.545983" y2="0.32233" x1="0.691935" x2="1.777654"/>
<linearGradient id="linearGradient21028" xlink:href="#linearGradient12071" y1="-Infinity" y2="Infinity" x1="0.299998" x2="0.499998"/>
<linearGradient id="linearGradient29940" xlink:href="#linearGradient10574" y1="3.319958" y2="-0.35484" x1="-1.457692" x2="1"/>
<linearGradient id="linearGradient21024" xlink:href="#linearGradient7555" y1="Infinity" y2="-Infinity" x1="1.166667" x2="0.785714"/>
<linearGradient id="linearGradient21026" xlink:href="#linearGradient7555" y1="-Infinity" y2="Infinity" x1="0.656251" x2="0.718751"/>
<linearGradient id="linearGradient21022" xlink:href="#linearGradient10574" y1="0.763328" y2="0.049886" x1="0.135778" x2="0.766604"/>
<linearGradient id="linearGradient21048" xlink:href="#linearGradient30584" y1="2.386793" y2="-0.772202" x1="0.92764" x2="0.106959"/>
<linearGradient id="linearGradient21068" xlink:href="#linearGradient13321" y1="0.361608" y2="0.156709" x1="0.325257" x2="0.597447"/>
<linearGradient id="linearGradient21050" xlink:href="#linearGradient7555" y1="0.213786" y2="0.755426" x1="0.501841" x2="0.546387"/>
<linearGradient id="linearGradient21070" xlink:href="#linearGradient13321" y1="0.591395" y2="0.193513" x1="0.174441" x2="0.582934"/>
<linearGradient id="linearGradient29199" xlink:href="#linearGradient8289" y1="0.5" y2="0.5" x1="0.02408" x2="1.015296"/>
<linearGradient id="linearGradient29936" xlink:href="#linearGradient30584" y1="1.26524" y2="0.039439" x1="0.072632" x2="1"/>
<linearGradient id="linearGradient23369" xlink:href="#linearGradient23363" y1="0.92315" y2="0.13327" x1="0.144795" x2="0.989274"/>
<linearGradient id="linearGradient21066" xlink:href="#linearGradient30584" y1="0.541825" y2="0.477186" x1="0.304713" x2="1.138506"/>
<linearGradient id="linearGradient21052" xlink:href="#linearGradient7555" y1="-Infinity" y2="Infinity" x1="0.656251" x2="0.718751"/>
<linearGradient id="linearGradient21062" xlink:href="#linearGradient10539" y1="0.402705" y2="1" x1="1.109694" x2="0.662508"/>
<linearGradient id="linearGradient21054" xlink:href="#linearGradient10574" y1="3.319958" y2="-0.35484" x1="-1.457692" x2="1"/>
<linearGradient id="linearGradient21058" xlink:href="#linearGradient23363" y1="1.309334" y2="-0.091068" x1="0.241775" x2="1.323417"/>
<linearGradient id="linearGradient21060" xlink:href="#linearGradient13321" y1="-0.068057" y2="0.942397" x1="0.765873" x2="0.063145"/>
<linearGradient id="linearGradient21056" xlink:href="#linearGradient8289" y1="0.956288" y2="0.033905" x1="0.818515" x2="0.551338"/>
<linearGradient id="linearGradient21020" xlink:href="#linearGradient10539" y1="1.619117" y2="0.326561" x1="0.709867" x2="1.856722"/>
<linearGradient id="linearGradient10574">
<stop offset="0" style="stop-color:#d7d5d7" id="stop10576"/>
<stop offset="0.25" style="stop-color:#3a3f2d" id="stop10584"/>
<stop offset="0.476333" style="stop-color:#7d7d8d" id="stop10582"/>
<stop offset="1" id="stop10578"/>
</linearGradient>
<linearGradient id="linearGradient7555">
<stop offset="0" style="stop-color:#fff" id="stop7557"/>
<stop offset="1" style="stop-color:#fff;stop-opacity:0" id="stop7559"/>
</linearGradient>
<linearGradient id="linearGradient10549">
<stop offset="0" style="stop-color:#fff" id="stop10551"/>
<stop offset="1" style="stop-color:#fff;stop-opacity:0" id="stop10553"/>
</linearGradient>
<linearGradient id="linearGradient9047">
<stop offset="0" style="stop-color:#fff" id="stop9049"/>
<stop offset="1" style="stop-color:#fff;stop-opacity:0" id="stop9051"/>
</linearGradient>
<linearGradient id="linearGradient21014" xlink:href="#linearGradient10539" y1="1.420777" y2="0.315102" x1="0.651507" x2="1.609497"/>
<linearGradient id="linearGradient10539">
<stop offset="0" style="stop-opacity:0" id="stop10541"/>
<stop offset="0.5" style="stop-color:#fff;stop-opacity:.479" id="stop10545"/>
<stop offset="1" style="stop-opacity:0" id="stop10543"/>
</linearGradient>
<linearGradient id="linearGradient11335">
<stop offset="0" id="stop11337"/>
<stop offset="0.8" style="stop-color:#434241" id="stop11343"/>
<stop offset="1" style="stop-color:#7f7d7f" id="stop11339"/>
</linearGradient>
<linearGradient id="linearGradient23363">
<stop offset="0" id="stop23365"/>
<stop offset="0.5" style="stop-color:#fff" id="stop23371"/>
<stop offset="1" id="stop23367"/>
</linearGradient>
<linearGradient id="linearGradient13321">
<stop offset="0" style="stop-color:#fff;stop-opacity:0" id="stop13323"/>
<stop offset="0.5" style="stop-color:#fff;stop-opacity:.594" id="stop13329"/>
<stop offset="1" style="stop-color:#fff;stop-opacity:0" id="stop13325"/>
</linearGradient>
<linearGradient id="linearGradient12071">
<stop offset="0" style="stop-color:#fff" id="stop12073"/>
<stop offset="0.527778" style="stop-color:#fff" id="stop12081"/>
<stop offset="0.633333" style="stop-color:#7d7d7f" id="stop12079"/>
<stop offset="0.633333" style="stop-color:#bebebf;stop-opacity:.498" id="stop12083"/>
<stop offset="1" style="stop-color:#fff" id="stop12075"/>
</linearGradient>
<linearGradient id="linearGradient30584">
<stop offset="0" id="stop30586"/>
<stop offset="1" style="stop-opacity:0" id="stop30588"/>
</linearGradient>
<linearGradient id="linearGradient26916">
<stop offset="0" style="stop-color:#fff;stop-opacity:.396" id="stop26918"/>
<stop offset="1" style="stop-opacity:.594" id="stop26920"/>
</linearGradient>
<linearGradient id="linearGradient13545">
<stop offset="0" style="stop-color:#3d3d52" id="stop13547"/>
<stop offset="0.5" id="stop8878"/>
<stop offset="1" style="stop-color:#82878d" id="stop13549"/>
</linearGradient>
<linearGradient id="linearGradient29122">
<stop offset="0" style="stop-opacity:.177" id="stop29124"/>
<stop offset="1" style="stop-opacity:0" id="stop29126"/>
</linearGradient>
<linearGradient id="linearGradient8289">
<stop offset="0" style="stop-color:#6f7275;stop-opacity:.51" id="stop8291"/>
<stop offset="0.575" style="stop-color:#edede7;stop-opacity:.823" id="stop9061"/>
<stop offset="0.75" style="stop-color:#d2cfd5;stop-opacity:.059" id="stop9063"/>
<stop offset="0.792778" style="stop-color:#313332;stop-opacity:.278" id="stop9065"/>
<stop offset="0.866667" style="stop-color:#181919;stop-opacity:.388" id="stop9067"/>
<stop offset="1" style="stop-opacity:.521" id="stop8293"/>
</linearGradient>
<linearGradient id="linearGradient21010" xlink:href="#linearGradient10549" y1="0" y2="0.724064" x1="0.314286" x2="0.326819"/>
<linearGradient id="linearGradient21006" xlink:href="#linearGradient7555" y1="-0.382168" y2="0.696616" x1="1.12796" x2="0.377493"/>
<linearGradient id="linearGradient21008" xlink:href="#linearGradient10539" y1="0.5" y2="0.43298" x1="-0.105216" x2="1.309346"/>
<linearGradient id="linearGradient21004" xlink:href="#linearGradient13545" y1="-Infinity" y2="-Infinity" x1="0.273178" x2="1.017286"/>
<linearGradient id="linearGradient21002" xlink:href="#linearGradient26916" y1="-Infinity" y2="-Infinity" x1="0.273178" x2="1.017286"/>
<linearGradient id="linearGradient21000" xlink:href="#linearGradient11335" y1="1.820297" y2="-0.255306" x1="0.943731" x2="0.433644"/>
<linearGradient id="linearGradient21012" xlink:href="#linearGradient10539" y1="1.353064" y2="0.321894" x1="0.62919" x2="1.544124"/>
<linearGradient id="linearGradient20998" xlink:href="#linearGradient10574" y1="0.411229" y2="0.411229" x1="-0.212807" x2="0.943294"/>
<linearGradient id="linearGradient20992" xlink:href="#linearGradient13545" y1="1.021194" y2="-0.225187" x1="0.057571" x2="0.09622"/>
<linearGradient id="linearGradient20996" xlink:href="#linearGradient30584" y1="-0.213826" y2="0.932863" x1="0.599366" x2="0.567949"/>
<linearGradient id="linearGradient20994" xlink:href="#linearGradient7555" y1="1.320683" y2="0" x1="0.450858" x2="0.536619"/>
<radialGradient fx="-16.327738" fy="39.315544" cx="-16.327738" cy="39.315544" r="1.928473" id="radialGradient21064" xlink:href="#linearGradient7555" gradientUnits="userSpaceOnUse"/>
<radialGradient fx="13.306464" fy="26.270802" cx="13.306464" cy="26.270802" gradientTransform="matrix(1.200540,-3.999305e-2,2.729261e-2,0.819290,-3.385483,5.499959)" r="1.607061" id="radialGradient21030" xlink:href="#linearGradient11335" gradientUnits="userSpaceOnUse"/>
<radialGradient fx="-38.021435" fy="48.71875" cx="-38.021435" cy="48.71875" gradientTransform="matrix(-0.992874,3.117189e-3,-4.315845e-3,-0.377890,-75.54023,58.90193)" r="35.15964" id="radialGradient20990" xlink:href="#linearGradient29122" gradientUnits="userSpaceOnUse"/>
<radialGradient fx="-16.327738" fy="39.315544" cx="-16.327738" cy="39.315544" r="1.928473" id="radialGradient21046" xlink:href="#linearGradient7555" gradientUnits="userSpaceOnUse"/>
</defs>
<g>
<g id="layer3">
<path style="stroke-opacity:.569;fill:url(#radialGradient20990);stroke-linejoin:round;stroke-linecap:round;stroke-width:.501" id="path28386" d="m 128.4465,92.6523 a 64,35.5245 0 1,1 -128,0 64,35.5245 0 1,1 128,0 z "/>
<path style="fill:url(#linearGradient20992);fill-rule:evenodd" id="path5322" d="m 71.2877,.5106 l -16.5369,1.3802 -1.9195,1.9936 c -0.024879,0.00054 -0.202816,0 -0.221478,0 -1.07381,0 -3.25503,0.913163 -5.83221,3.14378 -2.57718,2.23062 -2.58389,8.28118 -2.58389,8.28118 0.003708,0.034572 0.066998,0.043454 0.073826,0.076678 l -.1477,.1534 c 0,0 -27.1678,7.23054 -34.255,8.43454 -7.08725,1.204 -7.08725,12.2684 -7.08725,12.2684 l 4.7248,42.8628 c 3.96444,9.1161 25.9866,9.90722 25.9866,3.75721 0,-7.36105 4.72483,-6.13422 4.72483,-6.13422 0,0 12.0906,-2.93784 20.8188,-4.98404 0.315193,0.426987 0.477962,0.970062 0.812077,1.3802 0.517159,0.634789 0.758171,1.48637 1.32886,2.0703 2.21887,4.54636 5.48304,8.24853 9.44966,11.0416 0.023483,0.025543 0.05027,0.051239 0.07383,0.076683 1.70049,1.83759 3.88721,3.0566 5.97986,4.37062 4.94875,6.19675 12.1065,10.2748 20.302,10.2748 14.8907,0 26.9463,-12.928 26.9463,-28.9075 0,-8.88261 -3.94411,-16.5416 -9.81879,-21.8531 -0.436531,-0.508942 -0.710098,-1.13576 -1.18121,-1.61023 -1.38706,-2.20434 -3.33572,-3.75689 -5.16778,-5.44411 v -21.6231 c 0,0 -1.03356,-0.029541 -1.03356,-1.30352 0,-1.27398 -1.40268,-3.60385 -1.40268,-3.60385 0,0 -4.42112,0 -4.72483,-2.45368 -0.303741,-2.45369 -1.99329,-2.45369 -1.99329,-2.45369 0,0 -2.95267,-0.851278 -5.94258,-1.15799 -2.98995,-0.30671 -3.2668,-0.068852 -6.01715,-0.068852 -4.55585,-9.93691 -15.3557,-9.96809 -15.3557,-9.96809 z "/>
<path style="fill:url(#linearGradient20994);stroke-linejoin:round;stroke-linecap:round;stroke-width:3.871" id="path10557" d="m 90.8779,17.6005 c 0,0 -3.88802,2.79335 -15.4295,4.37063 -11.5415,1.57728 -3.0462,-4.73855 -10.3356,-2.53036 -7.28937,2.20822 -11.8859,24.6135 -11.8859,24.6135 0,0 -1.77181,6.99757 -1.77181,10.8882 0,8.81576 3.8931,16.4919 9.74497,21.8531 -0.456417,-0.751564 -1.00989,-1.41882 -1.40269,-2.22365 -0.570686,-0.583923 -0.811699,-1.43551 -1.32886,-2.0703 -0.334114,-0.410126 -0.496887,-0.953209 -0.81208,-1.3802 -0.124336,0.029144 -0.169666,0.047188 -0.2953,0.076675 -1.37375,-3.3697 -2.43624,-6.91848 -2.43624,-10.8115 0,-16.7136 13.1752,-30.211 29.3825,-30.211 6.45448,0 11.5499,2.98758 15.651,6.21089 l -9.0805,-18.786 z "/>
<g style="fill-rule:evenodd">
<path style="fill:url(#linearGradient20996)" id="path29856" d="m 58.9982,27.7009 c 0,0 4.5388,-7.17254 6.66447,-7.80345 2.12569,-0.630919 5.31418,0 8.50272,-0.315472 3.1885,-0.315447 13.0198,-2.20819 13.0198,-2.20819 0,0 -3.42113,9.30883 -5.54681,9.62428 -2.12567,0.315443 -14.0896,-4.23381 -22.6401,0.702833 z "/>
<path style="fill:url(#linearGradient20998)" id="path15037" d="m 91.7092,10.3561 c -3.5164,-0.046033 -3.4649,0.193692 -4.90796,0.484944 0.741188,1.50494 1.60148,2.93642 2.28859,4.4473 0.009262,0.020368 -0.009262,0.05631 0,0.076677 4.79394,0.413154 12.6242,0.613421 12.6242,0.613421 0,0.223063 -0.838913,-1.97271 -1.69798,-3.7572 -1.53018,-1.04753 -4.91888,-1.81911 -8.3068,-1.86514 z "/>
</g>
<g style="stroke-linejoin:round;stroke-linecap:round">
<path style="fill:url(#linearGradient21000);stroke-width:3.871" id="path20996" d="m 99.4471,54.9299 c -11.277,0 -20.4146,9.49055 -20.4146,21.2033 0,1.66306 0.499031,3.16103 0.871025,4.69299 3.11664,3.60025 7.49608,5.99345 12.5209,5.99345 9.39579,0 16.9849,-7.93886 16.9849,-17.6976 0,-5.66641 -2.7003,-10.5036 -6.69598,-13.7397 -1.07001,-0.21117 -2.12656,-0.452335 -3.26633,-0.452335 z "/>
<path style="stroke-opacity:.25;fill:url(#linearGradient21002);stroke:url(#linearGradient21004);stroke-width:.468" id="path26180" d="m 26.4704,37.7517 a 7.42093,4.08682 0 1,1 -14.8419,0 7.42093,4.08682 0 1,1 14.8419,0 z "/>
</g>
<g style="fill-rule:evenodd">
<path style="fill:url(#linearGradient21006)" id="path6827" d="m 52.9146,18.5088 c 0,0 -6.07445,26.183 -6.07445,29.3375 0,3.15458 -0.303738,14.511 5.77074,20.8202 6.07448,6.30916 5.77074,7.57098 5.77074,7.57098 l -22.4755,1.5773 -1.8223,-42.5868 -2.4298,-1.8927 1.5186,-7.571 -14.8825,3.7855 c 0,0 -11.023,-0.121359 -13.7781,6.71701 -0.524338,1.30144 -1.69654,-1.89275 -1.69654,-1.89275 0,0 0.386373,-4.6553 4.51902,-8.59388 1.11894,-1.0664 2.45136,5.03145 6.7035,3.45417 4.25213,-1.57728 16.0974,-4.73186 21.5644,-5.99369 5.46701,-1.26183 17.9197,-4.10094 17.3122,-4.73186 z "/>
<path style="fill:url(#linearGradient21008)" id="path9069" d="m 30.1353,35.5435 c 0,0 1.82235,10.4101 -19.742,6.30916 -5.16329,1.26183 -0.91116,7.57099 0,9.46373 0.911184,1.89273 6.68193,23.9748 6.07448,29.0221 -0.607447,5.04733 -0.911181,6.30917 -0.911181,6.30917 0,0 14.5787,2.83913 17.9197,-3.15459 0,-18.0501 -3.03724,-47.9495 -3.34096,-47.9495 z "/>
<path style="fill:url(#linearGradient21010)" id="path10547" d="m 55.0407,1.7896 c 0,0 9.71917,2.83913 12.149,8.83282 2.42979,5.99369 19.742,-0.946386 19.742,-0.946386 0,0 -7.28934,-9.14827 -13.3638,-9.46371 -6.07448,-0.315472 -18.5271,1.57728 -18.5271,1.57728 z "/>
</g>
<g style="stroke-linecap:round;stroke-linejoin:round;stroke-width:.2;fill:none" id="g10365">
<path style="stroke:url(#linearGradient21012)" id="path23959" d="m 101.2836,53.0147 c -14.0318,0 -25.4014,11.6888 -25.4014,26.1144 0,2.04826 0.620926,3.8932 1.08379,5.77999 3.87797,4.43416 9.32722,7.38168 15.5795,7.38168 11.691,0 21.134,-9.77769 21.134,-21.7968 0,-6.97888 -3.35994,-12.9365 -8.33167,-16.9221 -1.3314,-0.260082 -2.64604,-0.55711 -4.06422,-0.55711 z "/>
<path style="stroke:url(#linearGradient21014)" id="path24689" d="m 100.4051,54.1154 c -13.4011,0 -24.2598,10.9012 -24.2598,24.3547 0,1.91025 0.593025,3.63086 1.03509,5.39052 3.70367,4.13536 8.90802,6.88427 14.8793,6.88427 11.1656,0 20.1842,-9.11883 20.1842,-20.3281 0,-6.50862 -3.20892,-12.0648 -7.95721,-15.7819 -1.27156,-0.242558 -2.52711,-0.519569 -3.88157,-0.519569 z "/>
<path style="stroke:url(#linearGradient21016)" id="path24691" d="m 99.6834,54.7721 c -12.7705,0 -23.1182,10.2448 -23.1182,22.8882 0,1.79522 0.565117,3.41223 0.986374,5.06593 3.5294,3.88636 8.48884,6.46975 14.1792,6.46975 10.6402,0 19.2344,-8.56975 19.2344,-19.1041 0,-6.11671 -3.05792,-11.3384 -7.58277,-14.8316 -1.21172,-0.227951 -2.4082,-0.488281 -3.69891,-0.488281 z "/>
<path style="stroke:url(#linearGradient21018)" id="path24693" d="m 99.0302,54.9889 c -11.8246,0 -21.4057,9.85012 -21.4057,22.0066 0,1.72607 0.523254,3.2808 0.913307,4.8708 3.26796,3.73666 7.86004,6.22053 13.1289,6.22053 9.85199,0 17.8096,-8.23964 17.8096,-18.3682 0,-5.8811 -2.83141,-10.9016 -7.02109,-14.2603 -1.12197,-0.21917 -2.22981,-0.469475 -3.42492,-0.469475 z "/>
<path style="stroke:url(#linearGradient21020)" id="path24695" d="m 98.5233,55.425 c -11.1942,0 -20.2646,9.32504 -20.2646,20.8335 0,1.63406 0.495361,3.1059 0.864624,4.61114 3.09375,3.53747 7.44103,5.88893 12.429,5.88893 9.3268,0 16.8602,-7.80041 16.8602,-17.389 0,-5.56759 -2.68047,-10.3205 -6.64681,-13.5001 -1.06216,-0.207489 -2.11095,-0.44445 -3.24234,-0.44445 z "/>
</g>
<path style="fill:url(#linearGradient21022);fill-rule:evenodd" id="path10562" d="m 84.2958,30.3595 c -16.6031,0 -30.1,13.4426 -30.1,30.0883 0,3.87726 1.08844,7.41164 2.49573,10.7676 0.128727,-0.029373 0.175144,-0.047333 0.302513,-0.076363 0.322887,0.425255 0.489635,0.966125 0.831909,1.3746 0.529785,0.63221 0.776684,1.48033 1.36131,2.06189 2.27305,4.52792 5.61693,8.21501 9.6804,10.9968 0.024055,0.025436 0.051498,0.051025 0.07563,0.076363 1.74201,1.83013 3.98212,3.0442 6.12588,4.35288 2.65163,3.22804 5.96228,5.76601 9.68041,7.56027 -2.96944,-1.58527 -5.77634,-3.51701 -8.01659,-6.03294 -0.592224,-2.37112 -1.36131,-4.68078 -1.36131,-7.2548 0,-18.1286 14.5668,-32.8375 32.5201,-32.8375 1.81454,0 3.43922,0.43684 5.14271,0.763664 4.77092,3.75652 8.40003,8.85099 9.9073,14.8914 -1.08936,-6.9749 -4.53239,-13.0193 -9.52915,-17.4115 -0.447189,-0.506878 -0.727432,-1.13115 -1.21005,-1.60369 -1.42094,-2.19539 -3.41718,-3.74163 -5.29397,-5.42201 v -0.381832 c -2.93752,-3.30606 -11.6489,-11.9131 -22.6128,-11.9131 z "/>
<g style="stroke-linejoin:round;stroke-linecap:round">
<g style="stroke-width:3.871">
<path style="fill:#500;fill-opacity:.229" id="path9033" d="m 99.5623,68.1663 a 8.50425,8.8328 0 1,1 -17.0085,0 8.50425,8.8328 0 1,1 17.0085,0 z "/>
<path style="fill:url(#linearGradient21024)" id="path6825" d="m 96.3471,66.7738 a 6.37819,6.6246 0 1,1 -12.7564,0 6.37819,6.6246 0 1,1 12.7564,0 z "/>
<path style="fill:url(#linearGradient21026)" id="path9045" d="m 94.6767,64.7233 a 2.42978,2.52366 0 1,1 -4.85957,0 2.42978,2.52366 0 1,1 4.85957,0 z "/>
</g>
<path style="stroke-opacity:.569;fill:url(#linearGradient21028);stroke:#000;stroke-width:.371" id="path10605" d="m 43.6511,34.4394 a 3.79654,3.94322 0 1,1 -7.59309,0 3.79654,3.94322 0 1,1 7.59309,0 z "/>
<g style="stroke-width:3.871">
<path style="fill:url(#radialGradient21030)" id="path10607" d="m 24.5164,37.6729 a 3.79654,2.76025 0 1,1 -7.59309,0 3.79654,2.76025 0 1,1 7.59309,0 z "/>
<path style="fill:url(#linearGradient21032)" id="path12085" d="m 41.8287,34.9126 a 1.36675,1.41956 0 1,1 -2.73351,0 1.36675,1.41956 0 1,1 2.73351,0 z "/>
<path style="fill:url(#linearGradient21034)" id="path12089" d="m 23.2636,36.2928 a 2.61962,1.26184 0 1,1 -5.23924,0 2.61962,1.26184 0 1,1 5.23924,0 z "/>
</g>
</g>
<g style="fill-rule:evenodd">
<path style="fill:url(#linearGradient21036)" id="path13553" d="m 68.8676,18.9756 c 0,0 0.673798,-4.33519 2.69517,-4.98548 2.02137,-0.650286 13.9811,-2.1676 13.9811,-2.1676 0,0 2.86361,3.90167 1.85291,5.20224 -1.01067,1.30055 -15.4971,3.46814 -18.5292,1.95083 z "/>
<path style="fill:url(#linearGradient21038)" id="path14297" d="m 95.0313,27.0988 c 0,0 10.8774,-3.56898 11.44,-4.6843 0.562622,-1.11532 -0.187523,-1.56145 -0.187523,-1.56145 l 1.3128,1.7845 .7502,20.0756 -10.1272,-7.5841 -3.1882,-8.0302 z "/>
</g>
<path style="stroke-opacity:.67;fill:url(#linearGradient21040);stroke-linejoin:round;stroke-linecap:round;stroke-width:.371" id="path15778" d="m 98.8528,12.2277 a 5.78109,0.778351 0 1,1 -11.5622,-1.04044 5.78109,0.778351 0 1,1 11.5622,1.04044 z "/>
<g style="fill-rule:evenodd">
<path style="fill:url(#linearGradient29940)" id="path29938" d="m 89.0512,33.9285 c -17.4718,0 -31.6778,13.7265 -31.6778,30.7871 0,3.97388 1.10193,7.6599 2.58284,11.0996 0.071709,-0.015945 0.104767,-0.068336 0.151932,-0.081017 -1.05086,-2.81733 -1.89915,-5.74512 -1.89915,-8.91206 0,-17.4426 14.9869,-31.5163 33.425,-31.5163 2.38614,0 4.51256,0.881741 6.60904,1.78241 -2.75757,-1.78358 -5.74745,-3.15973 -9.19188,-3.15973 z "/>
<path style="fill:url(#linearGradient21042)" id="path19498" d="m 88.2653,35.2416 c -16.5007,0 -29.8993,13.3606 -29.8993,29.9137 0,3.85566 1.03762,7.38929 2.43624,10.7266 0.127922,-0.029205 0.16872,-0.046677 0.2953,-0.075539 0.320915,0.422897 0.471916,0.953537 0.81208,1.35971 0.526512,0.628677 0.821671,1.46126 1.40268,2.03957 1.539,3.0675 3.71105,5.58502 6.12751,7.85612 -0.149063,-0.26815 -0.322487,-0.521622 -0.516777,-0.755394 -0.34803,-0.418755 -0.483749,-0.999298 -0.81208,-1.43526 -0.129509,0.02977 -0.164421,0.04541 -0.295303,0.075539 -1.43089,-3.44041 -2.58389,-7.05404 -2.58389,-11.0288 0,-17.0643 13.756,-30.8201 30.6376,-30.8201 8.84963,0 15.3181,5.15213 19.4899,9.14028 -1.35961,-1.81687 -2.99596,-3.27626 -4.651,-4.75899 v -0.377701 c -2.91943,-3.28765 -11.5466,-11.8597 -22.4429,-11.8597 z "/>
</g>
<path style="fill:url(#radialGradient21046);stroke-linejoin:round;stroke-linecap:round;stroke-width:3.871" id="path25440" d="m 25.5319,41.4874 a 4.42804,2.13292 0 1,1 -8.85608,0.808895 4.42804,2.13292 0 1,1 8.85608,-0.808895 z "/>
<path style="fill:url(#linearGradient21048)" id="path30592" d="m 48.7349,12.962 c 0.12606,-0.170895 1.65454,0.611022 2.20189,0.87999 0.756367,0.341755 1.54296,0.658466 2.2488,1.0075 0.601753,0.317582 0.976665,0.385566 1.79916,0.434114 1.27352,0.113346 2.56105,0.322474 3.84043,0.557971 2.92865,0.500215 2.56957,0.297332 0.264648,0.347707 0.417023,-0.110474 0.847313,-0.213732 1.28439,-0.314303 l 3.4884,.5277 c -0.411865,0.086893 -0.866585,0.166389 -1.25337,0.275219 -2.42892,0.159321 -3.68259,0.304749 -6.28624,-0.254812 -1.22308,-0.193893 -2.435,-0.367035 -3.6545,-0.532141 -1.01712,-0.174891 -1.68223,-0.434722 -2.36686,-0.80707 -0.803776,-0.311459 -1.64012,-0.61631 -2.40476,-0.946564 -0.873409,-0.414722 -1.8788,-0.844058 -2.19488,-1.31856 l 3.0329,.1433 z "/>
<path style="fill:url(#linearGradient21050);fill-rule:evenodd" id="path31328" d="m 11.0363,23.2385 l 24.9735,-6.3749 c 0,0 3.80505,1.46752 2.51647,2.35978 -1.2886,0.892235 -22.1208,7.58412 -22.1208,7.58412 0,0 -5.36913,2.00755 -5.36913,-3.56901 z "/>
<g style="stroke-linejoin:round;stroke-linecap:round">
<g style="stroke-width:.2;stroke-opacity:.202">
<path style="fill:none;stroke:#fff;fill-rule:evenodd;fill-opacity:.75" id="path32801" d="m 16.2325,86.7745 c 0,0 0,-24.2902 -3.9484,-32.4921 -3.94842,-8.20188 -3.03724,-11.3565 -2.42979,-12.6183"/>
<path style="fill:#ffa700" id="path34259" d="m 65.3759,41.3822 a 0.810844,0.42108 0 1,1 -1.62169,1.90404 0.810844,0.42108 0 1,1 1.62169,-1.90404 z "/>
</g>
<path style="fill:url(#linearGradient21052);stroke-width:3.871" id="path34987" d="m 90.232,66.2698 a 0.802197,0.83319 0 1,1 -1.60439,0 0.802197,0.83319 0 1,1 1.60439,0 z "/>
</g>
<path style="fill:url(#linearGradient21054);fill-rule:evenodd" id="path1543" d="m 98.7116,43.4051 c -18.3566,0 -33.2822,13.3565 -33.2822,29.9572 0,3.86677 1.15775,7.45344 2.71365,10.8004 0.07534,-0.015518 0.110077,-0.066498 0.15963,-0.078842 -1.10408,-2.74139 -1.99534,-5.59026 -1.99534,-8.67183 0,-16.9725 15.7459,-30.6668 35.1179,-30.6668 2.50699,0 4.7411,0.857975 6.94376,1.73437 -2.89723,-1.7355 -6.03854,-3.07456 -9.65741,-3.07456 z "/>
<path style="opacity:.41;fill:url(#linearGradient21056);stroke-linejoin:round;stroke-linecap:round;stroke-width:3.871" id="path6809" d="m 103.9829,51.1128 c -15.2141,0 -26.8685,15.8651 -27.6161,34.0031 4.20473,4.88236 11.3625,9.24313 18.1417,9.24313 12.6761,0 22.9148,-10.766 22.9148,-24.0001 0,-7.68432 -3.64305,-14.2442 -9.03371,-18.6327 -1.44359,-0.286373 -2.869,-0.613422 -4.40668,-0.613422 z "/>
<g style="fill-rule:evenodd">
<path style="fill:url(#linearGradient21058)" id="path2294" d="m 103.9837,46.9129 c -18.6321,0 -33.7815,13.5591 -33.7815,30.4117 0,3.92543 1.17512,7.56651 2.75437,10.9642 0.076469,-0.015747 0.111725,-0.067513 0.162025,-0.080032 -1.12065,-2.78297 -2.02528,-5.67507 -2.02528,-8.80339 0,-17.23 15.9821,-31.132 35.6448,-31.132 2.54461,0 4.81224,0.870987 7.04795,1.76068 -2.9407,-1.76183 -6.12914,-3.1212 -9.80232,-3.1212 z "/>
<path style="opacity:.346;fill:url(#linearGradient21060)" id="path3024" d="m 85.11,29.7849 c -17.4385,0 -31.6175,13.2103 -31.6175,29.6293 0,3.82444 1.09984,7.37185 2.57793,10.6822 0.071571,-0.015343 0.104568,-0.065773 0.151642,-0.077972 -1.04886,-2.71138 -1.89554,-5.52907 -1.89554,-8.57692 0,-16.7867 14.9583,-30.3311 33.3614,-30.3311 2.3816,0 4.50397,0.848581 6.59646,1.71538 -2.75232,-1.71651 -5.73651,-3.0409 -9.17439,-3.0409 z "/>
</g>
<g style="stroke-linejoin:round;stroke-linecap:round;stroke-width:3.871">
<path style="fill:url(#linearGradient21062)" id="path22464" d="m 107.9701,51.7186 c -0.311813,0 -0.570274,0.169502 -0.880005,0.178204 1.18494,0.111801 2.37063,0.313499 3.52,0.534611 5.79269,4.57351 9.68001,11.4159 9.68001,19.4242 0,13.792 -11.0186,24.9485 -24.64,24.9485 -7.28471,0 -13.6097,-3.37645 -18.128,-8.46468 -0.539284,-2.16512 -1.23199,-4.24315 -1.23199,-6.59354 0,-3.85276 0.804695,-7.48744 2.112,-10.8704 -2.05402,4.35584 -3.43201,9.10645 -3.43201,14.2563 0,2.62073 0.806679,4.98133 1.40801,7.39546 5.03803,5.67345 12.1174,9.4448 20.24,9.4448 15.1883,0 27.456,-12.5105 27.456,-27.8889 0,-8.92944 -4.36503,-16.5522 -10.824,-21.6518 -1.72968,-0.332737 -3.43755,-0.712814 -5.28001,-0.712814 z "/>
<path style="fill:url(#radialGradient21064)" id="path4488" d="m 73.9363,13.3588 a 2.25959,1.29429 0 1,1 -4.51918,2.24561 2.25959,1.29429 0 1,1 4.51918,-2.24561 z "/>
</g>
<g style="fill-rule:evenodd">
<path style="fill:url(#linearGradient21066)" id="path4494" d="m 33.3061,78.8877 c 0,0 -0.376339,-40.0802 -3.01071,-43.0909 -2.63438,-3.01071 -7.5268,-3.95156 -9.40849,-4.13973 -1.8817,-0.188169 9.03215,-2.25804 9.03215,-2.25804 0,0 6.77411,10.1612 3.38705,49.4887 z "/>
<path style="fill:url(#linearGradient21068)" id="path11856" d="m 91.0938,66.5312 l -1.3438,1.7188 2.4062,3 c 0.971359,-0.873466 1.70206,-1.52804 2.25,-2 -0.752823,-0.599617 -3.3125,-2.71875 -3.3125,-2.71875 z  m 5.6562,4.625 c -0.979927,0.729332 -1.9682,1.42691 -2.96875,2.125 l 2.4062,3.0312 c 1.50623,-0.948509 2.73089,-1.84711 3.46875,-2.78125 -1.2925,-1.05816 -1.90262,-1.56715 -2.90625,-2.375 z  m 5.5625,4.5625 c -1.28029,1.13728 -2.61465,2.21269 -4,3.21875 l 2.375,3 c 1.1302,-0.689972 3.62235,-2.29932 5.03125,-3.28125 -1.43377,-1.24155 -1.9652,-1.73223 -3.40625,-2.9375 z  m 9.1562,8.0938 c -1.72604,1.68481 -3.49573,3.33043 -5.53125,4.6875 l 1.3438,1.6875 c 1.98504,-1.56545 3.92596,-3.17991 5.71875,-4.9375 -0.446869,-0.452927 -1.00921,-0.938721 -1.53125,-1.4375 z  m 3.0938,3.125 c -1.12832,1.55507 -2.38416,3.00713 -3.84375,4.375 -0.459457,0.481621 -0.996407,0.862099 -1.5,1.28125 l 2.0312,2.5625 c 0,0 3.68001,-3.42849 4.6875,-5.84375 0.155487,-0.372772 -0.444397,-1.28826 -1.375,-2.375 z "/>
<path style="fill:url(#linearGradient21070)" id="path18413" d="m 96.6197,41.8484 c -17.6082,0 -31.9252,13.2103 -31.9252,29.6293 0,3.82444 1.11053,7.37185 2.60301,10.6822 0.072266,-0.015343 0.105583,-0.065765 0.153114,-0.077972 -1.05906,-2.71138 -1.91398,-5.52907 -1.91398,-8.57691 0,-16.7867 15.1039,-30.3311 33.6861,-30.3311 2.40477,0 4.54779,0.848583 6.66065,1.71538 -2.77911,-1.71651 -5.79234,-3.04091 -9.26367,-3.04091 z "/>
</g>
<g style="stroke-linejoin:round;stroke-linecap:round;fill:none">
<path style="stroke-dasharray:1.5000000 1.5000000;stroke-opacity:.277;stroke:url(#linearGradient23369);fill-rule:evenodd;stroke-width:1.5" id="path21116" d="m 84.754,36.2678 l 4.6533,5.2158 -4.6533,-5.2158 z  m 4.1562,0 l 4.6221,5.2158 -4.6221,-5.2158 z  m 3.6562,.4688 l 4.8096,5.0283 -4.8096,-5.0283 z  m -11.75,.2812 l 4.6221,5.2158 -4.6221,-5.2158 z  m 15.5312,.4688 l 4.8096,4.7622 -4.8096,-4.7622 z  m -19,.5938 l 4.0283,5.4497 -4.0283,-5.4497 z  m 23.125,.9062 l 4.8096,4.7622 -4.8096,-4.7622 z  m -26.5625,.8125 l 4.1221,5.3872 -4.1221,-5.3872 z  m 30.1562,.875 l 4.8096,4.7622 -4.8096,-4.7622 z  m -33.3438,1.5938 l 4.0908,5.356 -4.0908,-5.356 z  m -3.5867,2.9456 l 4.49,5.2542 -4.49,-5.2542 z  m -2.2571,3.0544 l 4.1221,5.3872 -4.1221,-5.3872 z  m -2.25,3.4062 l 4.1221,5.3872 -4.1221,-5.3872 z  m -1.5,3.375 l 3.5586,5.3872 -3.5586,-5.3872 z  m -.9375,3.0312 l 3.5586,5.356 -3.5586,-5.356 z  m -.375,2.8125 l 3.5586,5.3872 -3.5586,-5.3872 z  m -.1875,3.375 l 3.5586,5.3872 -3.5586,-5.3872 z  m -.375,2.6562 l 3.5586,5.356 -3.5586,-5.356 z  m .1875,3 l 3.5586,5.3872 -3.5586,-5.3872 z  m .75,3.4062 l 3.5586,5.3872 -3.5586,-5.3872 z "/>
<path style="stroke:url(#linearGradient29199);fill-opacity:.197;stroke-width:.614" id="path27739" d="m 120.6697,63.3643 c 5.78775,10.9068 1.19165,25.8257 -10.2591,33.301 -11.4508,7.47536 -26.8468,4.54059 -33.3582,-5.9503 -4.45719,-7.18124 0.937241,-26.0918 12.388,-33.5671 11.4508,-7.47535 25.4415,-4.69039 31.2293,6.21643 z "/>
</g>
<path style="fill:url(#linearGradient29936);fill-rule:evenodd" id="path29202" d="m 75.0437,85.9543 c 0,0 -3.19335,-10.9106 -1.59668,-14.9023 1.59668,-3.99168 6.12059,-10.9106 7.18504,-11.9751 1.06444,-1.06445 2.66112,0 2.66112,0 0,0 8.51559,-6.38669 10.6445,-7.18503 2.1289,-0.798332 1.59667,-2.39501 1.59667,-2.39501 0,0 3.45946,-1.33056 5.32225,-1.06445 1.86278,0.266109 8.7817,1.86279 8.7817,1.86279 0,0 -5.58836,-1.59668 -11.1767,0.79834 -5.58836,2.395 -13.3056,6.6528 -16.499,10.3784 -3.19334,3.72557 -7.98337,12.5073 -6.91891,24.4823 z "/>
</g>
</g>
</svg>
