<?xml version="1.0" encoding="UTF-8" standalone="no"?>
<!-- Created with Inkscape (http://www.inkscape.org/) -->

<svg
   xmlns:dc="http://purl.org/dc/elements/1.1/"
   xmlns:cc="http://creativecommons.org/ns#"
   xmlns:rdf="http://www.w3.org/1999/02/22-rdf-syntax-ns#"
   xmlns:svg="http://www.w3.org/2000/svg"
   xmlns="http://www.w3.org/2000/svg"
   xmlns:sodipodi="http://sodipodi.sourceforge.net/DTD/sodipodi-0.dtd"
   xmlns:inkscape="http://www.inkscape.org/namespaces/inkscape"
   width="94.427437mm"
   height="57.27634mm"
   viewBox="0 0 334.5854 202.94766"
   id="svg5302"
   version="1.1"
   inkscape:version="0.91 r13725"
   sodipodi:docname="visual-fields-lgn.svg">
  <defs
     id="defs5304">
    <marker
       inkscape:isstock="true"
       style="overflow:visible"
       id="marker5734"
       refX="0"
       refY="0"
       orient="auto"
       inkscape:stockid="Arrow1Lstart">
      <path
         transform="matrix(0.8,0,0,0.8,10,0)"
         style="fill:#2c5aa0;fill-opacity:0.56862745;fill-rule:evenodd;stroke:#000000;stroke-width:1pt;stroke-opacity:1"
         d="M 0,0 5,-5 -12.5,0 5,5 0,0 Z"
         id="path5736"
         inkscape:connector-curvature="0" />
    </marker>
    <marker
       inkscape:isstock="true"
       style="overflow:visible"
       id="marker5730"
       refX="0"
       refY="0"
       orient="auto"
       inkscape:stockid="Arrow1Lstart">
      <path
         transform="matrix(0.8,0,0,0.8,10,0)"
         style="fill:#008000;fill-opacity:0.56862745;fill-rule:evenodd;stroke:#000000;stroke-width:1pt;stroke-opacity:1"
         d="M 0,0 5,-5 -12.5,0 5,5 0,0 Z"
         id="path5732"
         inkscape:connector-curvature="0" />
    </marker>
  </defs>
  <sodipodi:namedview
     id="base"
     pagecolor="#ffffff"
     bordercolor="#666666"
     borderopacity="1.0"
     inkscape:pageopacity="0.0"
     inkscape:pageshadow="2"
     inkscape:zoom="7.919596"
     inkscape:cx="70.847343"
     inkscape:cy="52.241206"
     inkscape:document-units="px"
     inkscape:current-layer="g5337"
     showgrid="false"
     inkscape:window-width="1916"
     inkscape:window-height="1030"
     inkscape:window-x="0"
     inkscape:window-y="0"
     inkscape:window-maximized="0"
     showguides="true"
     inkscape:guide-bbox="true"
     fit-margin-top="5"
     fit-margin-left="5"
     fit-margin-right="5"
     fit-margin-bottom="5" />
  <metadata
     id="metadata5307">
    <rdf:RDF>
      <cc:Work
         rdf:about="">
        <dc:format>image/svg+xml</dc:format>
        <dc:type
           rdf:resource="http://purl.org/dc/dcmitype/StillImage" />
        <dc:title />
      </cc:Work>
    </rdf:RDF>
  </metadata>
  <g
     inkscape:label="Layer 1"
     inkscape:groupmode="layer"
     id="layer1"
     transform="translate(313.0345,-747.99828)">
    <path
       inkscape:connector-curvature="0"
       style="fill:none;fill-rule:evenodd;stroke:none;stroke-width:0.5;stroke-linecap:butt;stroke-linejoin:miter;stroke-miterlimit:4;stroke-dasharray:none;stroke-opacity:1"
       d="m -187.29791,894.61482 0.0958,0.0419 a 12.592058,12.576524 0 0 1 -0.003,-0.0882 l -0.0927,0.0463 z"
       id="path5362" />
    <path
       sodipodi:nodetypes="ccsc"
       inkscape:connector-curvature="0"
       id="path5392"
       d="m -180.29811,907.10005 c 5.58485,2.46013 12.12062,1.04838 16.18856,-3.49678 4.39082,-4.91844 4.77588,-12.22158 0.92658,-17.57342 -3.84936,-5.35193 -10.90203,-7.31877 -16.97059,-4.73274"
       style="fill:none;fill-opacity:1;stroke:#d45500;stroke-width:1.5;stroke-miterlimit:4;stroke-dasharray:none;stroke-opacity:1" />
    <path
       sodipodi:nodetypes="ccsc"
       inkscape:connector-curvature="0"
       id="path5395"
       d="m -180.29811,840.85539 c 5.58485,2.46013 12.12062,1.04838 16.18856,-3.49678 4.39082,-4.91843 4.77588,-12.22158 0.92658,-17.57342 -3.84936,-5.35193 -10.90203,-7.31877 -16.97059,-4.73273"
       style="fill:none;fill-opacity:1;stroke:#d45500;stroke-width:1.5;stroke-miterlimit:4;stroke-dasharray:none;stroke-opacity:1" />
    <path
       inkscape:connector-curvature="0"
       id="path5419"
       d="m -178.41699,816.01705 -8.79126,11.98233 21.28031,-9.07936 a 12.592058,12.576524 0 0 0 -8.69682,-3.50188 12.592058,12.576524 0 0 0 -3.79223,0.59891 z"
       style="fill:#5fd35f;fill-opacity:1;stroke:none;stroke-width:0.5;stroke-miterlimit:4;stroke-dasharray:none;stroke-opacity:1" />
    <path
       inkscape:connector-curvature="0"
       id="path5421"
       d="m -264.57776,860.84854 77.29778,-32.87329 -77.04843,-39.22381"
       style="fill:#2c5aa0;fill-opacity:0.56862745;fill-rule:evenodd;stroke:none;stroke-width:0.5;stroke-linecap:butt;stroke-linejoin:miter;stroke-miterlimit:4;stroke-dasharray:none;stroke-opacity:1" />
    <path
       inkscape:connector-curvature="0"
       id="path5428"
       d="m -187.21643,827.98984 a 12.592058,12.576524 0 0 0 -3.5e-4,0.005 12.592058,12.576524 0 0 0 3.5e-4,0.0133 l 19.96646,10.16142 a 12.592058,12.576524 0 0 0 0.45273,-0.32312 12.592058,12.576524 0 0 0 0.94532,-0.82976 12.592058,12.576524 0 0 0 0.85806,-0.91999 12.592058,12.576524 0 0 0 0.76192,-1.00068 12.592058,12.576524 0 0 0 0.65761,-1.07151 12.592058,12.576524 0 0 0 0.54749,-1.13211 12.592058,12.576524 0 0 0 0.43159,-1.1808 12.592058,12.576524 0 0 0 0.31159,-1.21825 12.592058,12.576524 0 0 0 0.18818,-1.24311 12.592058,12.576524 0 0 0 0.0627,-1.25536 12.592058,12.576524 0 0 0 -0.0314,-0.88969 12.592058,12.576524 0 0 0 -0.1517,-1.24788 12.592058,12.576524 0 0 0 -0.27579,-1.22676 12.592058,12.576524 0 0 0 -0.39682,-1.19306 12.592058,12.576524 0 0 0 -0.51408,-1.14743 12.592058,12.576524 0 0 0 -0.62624,-1.09023 12.592058,12.576524 0 0 0 -0.73227,-1.02282 12.592058,12.576524 0 0 0 -0.83078,-0.94416 12.592058,12.576524 0 0 0 -0.32216,-0.29997 l -21.30247,9.05721 z"
       style="fill:#2c5aa0;fill-opacity:1;fill-rule:evenodd;stroke:none;stroke-width:0.5;stroke-linecap:butt;stroke-linejoin:miter;stroke-miterlimit:4;stroke-dasharray:none;stroke-opacity:1" />
    <path
       inkscape:connector-curvature="0"
       id="path5423"
       d="m -187.23552,827.99802 0.0191,0.01 a 12.592058,12.576524 0 0 1 -3.5e-4,-0.0133 12.592058,12.576524 0 0 1 3.5e-4,-0.005 l -0.0191,0.008 z"
       style="fill:#2c5aa0;fill-opacity:0.56862745;fill-rule:evenodd;stroke:none;stroke-width:0.5;stroke-linecap:butt;stroke-linejoin:miter;stroke-miterlimit:4;stroke-dasharray:none;stroke-opacity:1" />
    <g
       id="g5337"
       transform="matrix(0,-0.17432805,0.17454337,0,-257.01094,925.74838)"
       style="stroke-width:2.86638618;stroke-miterlimit:4;stroke-dasharray:none;stroke:none">
      <rect
         y="-135.57721"
         x="-40.406101"
         height="93.944183"
         width="413.1524"
         id="rect5314"
         style="fill:#5fd35f;fill-opacity:1;stroke:none;stroke-width:2.86638618;stroke-miterlimit:4;stroke-dasharray:none;stroke-opacity:1" />
      <rect
         style="fill:#2c5aa0;fill-opacity:1;stroke:none;stroke-width:2.86638618;stroke-miterlimit:4;stroke-dasharray:none;stroke-opacity:1"
         id="rect5316"
         width="413.1524"
         height="93.944183"
         x="372.74628"
         y="-135.57721" />
    </g>
    <path
       style="fill:#2c5aa0;fill-opacity:1;fill-rule:evenodd;stroke:none;stroke-width:0.5;stroke-linecap:butt;stroke-linejoin:miter;stroke-miterlimit:4;stroke-dasharray:none;stroke-opacity:1"
       d="m -178.77767,906.09664 a 12.592058,12.576524 0 0 0 0.43158,0.1573 12.592058,12.576524 0 0 0 1.21976,0.3112 12.592058,12.576524 0 0 0 1.24431,0.18795 12.592058,12.576524 0 0 0 1.25726,0.0626 12.592058,12.576524 0 0 0 0.89078,-0.0313 12.592058,12.576524 0 0 0 1.24942,-0.15152 12.592058,12.576524 0 0 0 1.22828,-0.27545 12.592058,12.576524 0 0 0 1.19419,-0.39633 12.592058,12.576524 0 0 0 1.14919,-0.51345 12.592058,12.576524 0 0 0 1.09158,-0.62581 12.592058,12.576524 0 0 0 1.02407,-0.73102 12.592058,12.576524 0 0 0 0.37568,-0.32959 l -20.66873,-9.01943 8.31263,11.35482 z"
       id="path5347"
       inkscape:connector-curvature="0" />
    <path
       style="fill:#60d260;fill-opacity:0.3137255;fill-rule:evenodd;stroke:none;stroke-width:0.5;stroke-linecap:butt;stroke-linejoin:miter;stroke-miterlimit:4;stroke-dasharray:none;stroke-opacity:1"
       d="m -264.27771,933.00575 76.96169,-38.44092 -77.138,-33.81081"
       id="path5360"
       inkscape:connector-curvature="0"
       sodipodi:nodetypes="ccc" />
    <path
       style="fill:#5fd35f;fill-opacity:1;fill-rule:evenodd;stroke:none;stroke-width:0.5;stroke-linecap:butt;stroke-linejoin:miter;stroke-miterlimit:4;stroke-dasharray:none;stroke-opacity:1"
       d="m -187.20518,894.56851 a 12.592058,12.576524 0 0 0 0.003,0.0882 l 20.77918,9.10558 a 12.592058,12.576524 0 0 0 0.57102,-0.5012 12.592058,12.576524 0 0 0 0.85806,-0.91999 12.592058,12.576524 0 0 0 0.76192,-1.00068 12.592058,12.576524 0 0 0 0.6576,-1.0715 12.592058,12.576524 0 0 0 0.5475,-1.13212 12.592058,12.576524 0 0 0 0.43158,-1.1808 12.592058,12.576524 0 0 0 0.31159,-1.21825 12.592058,12.576524 0 0 0 0.18818,-1.24311 12.592058,12.576524 0 0 0 0.0627,-1.25536 12.592058,12.576524 0 0 0 -0.0314,-0.88969 12.592058,12.576524 0 0 0 -0.1517,-1.24788 12.592058,12.576524 0 0 0 -0.27579,-1.22676 12.592058,12.576524 0 0 0 -0.39681,-1.19306 12.592058,12.576524 0 0 0 -0.51409,-1.14743 12.592058,12.576524 0 0 0 -0.62624,-1.09023 12.592058,12.576524 0 0 0 -0.73227,-1.02282 12.592058,12.576524 0 0 0 -0.83078,-0.94416 12.592058,12.576524 0 0 0 -0.92079,-0.857 12.592058,12.576524 0 0 0 -0.33204,-0.25196 l -20.36055,10.20023 z"
       id="path5373"
       inkscape:connector-curvature="0" />
    <path
       inkscape:connector-curvature="0"
       id="path5397"
       d="m -264.20374,932.82112 76.92376,-104.84587 -77.04843,32.87329"
       style="fill:#5fd35f;fill-opacity:0.31506848;fill-rule:evenodd;stroke:none;stroke-width:0.5;stroke-linecap:butt;stroke-linejoin:miter;stroke-miterlimit:4;stroke-dasharray:none;stroke-opacity:1" />
    <path
       style="fill:#2c5aa0;fill-opacity:0.56862745;fill-rule:evenodd;stroke:none;stroke-width:0.5;stroke-linecap:butt;stroke-linejoin:miter;stroke-miterlimit:4;stroke-dasharray:none;stroke-opacity:1"
       d="m -264.27787,860.77658 76.87428,33.73376 -76.87428,-105.5937"
       id="path5345"
       inkscape:connector-curvature="0" />
    <path
       style="fill:none;fill-rule:evenodd;stroke:#2c5aa0;stroke-width:8;stroke-linecap:butt;stroke-linejoin:round;stroke-miterlimit:4;stroke-dasharray:none;stroke-opacity:1"
       d="m -58.519044,896.3704 c -12.076856,0.45316 -20.862256,-4.54762 -28.816868,-11.0763 -19.525378,-16.02531 -25.529008,-34.26944 -42.881608,-46.05321 -8.57197,-5.82104 -20.66807,-10.91662 -28.95821,-11.30005"
       id="path5738"
       inkscape:connector-curvature="0"
       sodipodi:nodetypes="csac" />
    <text
       xml:space="preserve"
       style="font-style:normal;font-weight:normal;font-size:6.97742701px;line-height:125%;font-family:sans-serif;letter-spacing:0px;word-spacing:0px;fill:#000000;fill-opacity:1;stroke:none;stroke-width:1px;stroke-linecap:butt;stroke-linejoin:miter;stroke-opacity:1"
       x="-192.83339"
       y="778.85968"
       id="text5751"
       sodipodi:linespacing="125%"
       transform="scale(1.0006174,0.99938299)"><tspan
         sodipodi:role="line"
         id="tspan5753"
         x="-192.83339"
         y="778.85968"
         style="font-style:normal;font-variant:normal;font-weight:normal;font-stretch:normal;font-size:17.5px;font-family:'Droid Sans';-inkscape-font-specification:'Droid Sans'">Eyes</tspan></text>
    <path
       style="fill:#5fd35f;fill-opacity:1;stroke:none;stroke-width:8;stroke-linecap:butt;stroke-linejoin:round;stroke-miterlimit:4;stroke-dasharray:none;stroke-opacity:1"
       d="m -60.401783,813.34426 5.044644,1.47322 0,15.13391 -5.044644,0 z"
       id="rect5767"
       inkscape:connector-curvature="0"
       sodipodi:nodetypes="ccccc" />
    <text
       transform="matrix(0,-1.0006174,0.99938299,0,0,0)"
       sodipodi:linespacing="125%"
       id="text5783"
       y="-285.9361"
       x="-852.15149"
       style="font-style:normal;font-weight:normal;font-size:6.97742701px;line-height:125%;font-family:sans-serif;letter-spacing:0px;word-spacing:0px;fill:#000000;fill-opacity:1;stroke:none;stroke-width:1px;stroke-linecap:butt;stroke-linejoin:miter;stroke-opacity:1"
       xml:space="preserve"><tspan
         style="font-style:normal;font-variant:normal;font-weight:normal;font-stretch:normal;font-size:12.5px;font-family:'Droid Sans';-inkscape-font-specification:'Droid Sans'"
         y="-285.9361"
         x="-852.15149"
         sodipodi:role="line"
         id="tspan5787">Right field</tspan></text>
    <text
       xml:space="preserve"
       style="font-style:normal;font-weight:normal;font-size:6.97742701px;line-height:125%;font-family:sans-serif;letter-spacing:0px;word-spacing:0px;fill:#000000;fill-opacity:1;stroke:none;stroke-width:1px;stroke-linecap:butt;stroke-linejoin:miter;stroke-opacity:1"
       x="-920.1095"
       y="-285.9361"
       id="text5791"
       sodipodi:linespacing="125%"
       transform="matrix(0,-1.0006174,0.99938299,0,0,0)"><tspan
         id="tspan5793"
         sodipodi:role="line"
         x="-920.1095"
         y="-285.9361"
         style="font-style:normal;font-variant:normal;font-weight:normal;font-stretch:normal;font-size:12.5px;font-family:'Droid Sans';-inkscape-font-specification:'Droid Sans'">Left field</tspan></text>
    <path
       sodipodi:nodetypes="csac"
       inkscape:connector-curvature="0"
       id="path5816"
       d="m -58.519044,825.97271 c -12.076856,-0.45316 -20.862256,4.54762 -28.816868,11.0763 -19.525378,16.02531 -25.529008,34.26944 -42.881608,46.05321 -8.57197,5.82104 -20.66807,10.91662 -28.95821,11.30005"
       style="fill:none;fill-rule:evenodd;stroke:#5fd35f;stroke-width:8;stroke-linecap:butt;stroke-linejoin:round;stroke-miterlimit:4;stroke-dasharray:none;stroke-opacity:1" />
    <path
       style="fill:none;fill-rule:evenodd;stroke:#5fd35f;stroke-width:8;stroke-linecap:butt;stroke-linejoin:round;stroke-miterlimit:4;stroke-dasharray:none;stroke-opacity:1"
       d="m -58.519044,817.97271 c 0,0 -25.36668,-8.89616 -42.769906,-12.87049 -19.92986,-4.55134 -56.7395,-5.15481 -65.02964,8.80005"
       id="path5818"
       inkscape:connector-curvature="0"
       sodipodi:nodetypes="csc" />
    <path
       sodipodi:nodetypes="csc"
       inkscape:connector-curvature="0"
       id="path5821"
       d="m -58.519044,904.35759 c 0,0 -25.36668,8.89616 -42.769906,12.87049 -19.92986,4.55134 -56.7395,5.15481 -65.02964,-8.80005"
       style="fill:none;fill-rule:evenodd;stroke:#2c5aa0;stroke-width:8;stroke-linecap:butt;stroke-linejoin:round;stroke-miterlimit:4;stroke-dasharray:none;stroke-opacity:1" />
    <path
       sodipodi:nodetypes="ccccc"
       inkscape:connector-curvature="0"
       id="path5823"
       d="m -60.401783,908.98604 5.044644,-1.47322 0,-15.13391 -5.044644,0 z"
       style="fill:#2c5aa0;fill-opacity:1;stroke:none;stroke-width:8;stroke-linecap:butt;stroke-linejoin:round;stroke-miterlimit:4;stroke-dasharray:none;stroke-opacity:1" />
    <ellipse
       style="fill:#ff5555;fill-opacity:1;stroke:none;stroke-width:25;stroke-linecap:butt;stroke-linejoin:round;stroke-miterlimit:4;stroke-dasharray:none;stroke-opacity:1"
       id="path5743"
       cx="-29.318228"
       cy="822.34839"
       rx="27.152576"
       ry="19.018576" />
    <ellipse
       ry="19.018576"
       rx="27.152576"
       cy="900.20398"
       cx="-29.318228"
       id="ellipse5745"
       style="fill:#ff5555;fill-opacity:1;stroke:none;stroke-width:25;stroke-linecap:butt;stroke-linejoin:round;stroke-miterlimit:4;stroke-dasharray:none;stroke-opacity:1" />
    <text
       transform="scale(1.0006174,0.99938299)"
       sodipodi:linespacing="125%"
       id="text5771"
       y="778.85968"
       x="-45.381245"
       style="font-style:normal;font-weight:normal;font-size:6.97742701px;line-height:125%;font-family:sans-serif;letter-spacing:0px;word-spacing:0px;fill:#000000;fill-opacity:1;stroke:none;stroke-width:1px;stroke-linecap:butt;stroke-linejoin:miter;stroke-opacity:1"
       xml:space="preserve"><tspan
         style="font-style:normal;font-variant:normal;font-weight:normal;font-stretch:normal;font-size:17.5px;font-family:'Droid Sans';-inkscape-font-specification:'Droid Sans'"
         y="778.85968"
         x="-45.381245"
         id="tspan5773"
         sodipodi:role="line">LGN</tspan></text>
    <g
       id="g5341"
       transform="matrix(0,-0.17432805,0.17454337,0,-225.09785,923.75048)">
      <circle
         r="72.14286"
         cy="289.17221"
         cx="169.28572"
         id="path5310"
         style="fill:none;fill-opacity:1;stroke:#000000;stroke-width:2.86638618;stroke-miterlimit:4;stroke-dasharray:none;stroke-opacity:1" />
      <circle
         style="fill:none;fill-opacity:1;stroke:#000000;stroke-width:2.86638618;stroke-miterlimit:4;stroke-dasharray:none;stroke-opacity:1"
         id="circle5312"
         cx="549.28571"
         cy="289.17221"
         r="72.14286" />
    </g>
  </g>
</svg>
